<?xml version="1.0" encoding="utf-8"?>
<!-- Generator: Adobe Illustrator 24.0.2, SVG Export Plug-In . SVG Version: 6.00 Build 0)  -->
<svg version="1.1" id="Layer_1" xmlns="http://www.w3.org/2000/svg" xmlns:xlink="http://www.w3.org/1999/xlink" x="0px" y="0px"
	 viewBox="0 0 15.91 24" style="enable-background:new 0 0 15.91 24;" xml:space="preserve">
<style type="text/css">
	.st0{fill:#FFFFFF;}
</style>
<g>
	<path class="st0" d="M6.63,24c-0.01-0.11-0.02-0.22-0.02-0.33c0-6.1,0-12.19,0-18.29c0-0.1,0-0.2,0-0.31
		c-1.6,1.6-3.18,3.18-4.76,4.76C1.2,9.17,0.59,8.55,0,7.96C2.64,5.32,5.31,2.65,7.96,0c2.63,2.63,5.3,5.3,7.95,7.95
		c-0.6,0.59-1.21,1.2-1.83,1.81c-1.55-1.55-3.14-3.14-4.72-4.72C9.33,5.05,9.31,5.06,9.28,5.07c0,0.1,0,0.19,0,0.29
		c0,6.1,0,12.21,0,18.31c0,0.11-0.01,0.22-0.02,0.33C8.39,24,7.51,24,6.63,24z"/>
</g>
</svg>
