<?xml version="1.0" encoding="utf-8"?>
<!-- Generator: Adobe Illustrator 24.0.2, SVG Export Plug-In . SVG Version: 6.00 Build 0)  -->
<svg version="1.1" id="Layer_1" xmlns="http://www.w3.org/2000/svg" xmlns:xlink="http://www.w3.org/1999/xlink" x="0px" y="0px"
	 viewBox="0 0 80 80" style="enable-background:new 0 0 80 80;" xml:space="preserve">
<style type="text/css">
	.st0{opacity:0.4;fill:#FFFFFF;}
	.st1{fill:#FFFFFF;}
</style>
<g>
	<circle class="st0" cx="40" cy="40" r="40"/>
	<g>
		<path class="st1" d="M30.42,28c0.02,0,0.03,0,0.05,0c0.05,0.06,0.09,0.12,0.14,0.18c3.08,3.08,6.15,6.15,9.23,9.23
			c0.05,0.05,0.11,0.1,0.18,0.16c0.07-0.06,0.12-0.11,0.18-0.16c3.08-3.08,6.15-6.15,9.23-9.23c0.05-0.05,0.09-0.12,0.14-0.18
			c0.02,0,0.03,0,0.05,0c0.8,0.8,1.59,1.59,2.39,2.39c0,0.02,0,0.03,0,0.05c-0.06,0.05-0.12,0.09-0.18,0.14
			c-3.08,3.08-6.15,6.15-9.23,9.23c-0.05,0.05-0.1,0.11-0.16,0.18c0.06,0.07,0.11,0.12,0.16,0.18c3.08,3.08,6.15,6.15,9.23,9.23
			c0.05,0.05,0.12,0.09,0.18,0.14c0,0.02,0,0.03,0,0.05c-0.8,0.79-1.6,1.59-2.45,2.43c-3.21-3.21-6.39-6.39-9.59-9.59
			c-3.16,3.16-6.34,6.34-9.51,9.51c-0.8-0.8-1.59-1.59-2.41-2.41c3.17-3.17,6.36-6.36,9.55-9.55c-3.19-3.19-6.37-6.37-9.6-9.6
			C28.82,29.57,29.62,28.78,30.42,28z"/>
	</g>
</g>
</svg>
