<?xml version="1.0" encoding="utf-8"?>
<!-- Generator: Adobe Illustrator 24.0.2, SVG Export Plug-In . SVG Version: 6.00 Build 0)  -->
<svg version="1.1" id="Layer_1" xmlns="http://www.w3.org/2000/svg" xmlns:xlink="http://www.w3.org/1999/xlink" x="0px" y="0px"
	 viewBox="0 0 107.09 99.46" style="enable-background:new 0 0 107.09 99.46;" xml:space="preserve">
<style type="text/css">
	.st0{fill:#FFFFFF;}
</style>
<g>
	<g>
		<g>
			<path class="st0" d="M81.1,4.89l-5.57-2.85l-1.69,3.32l4.18,2.13l-0.65,1.27l-4.18-2.13l-1.77,3.47l5.57,2.85l-0.65,1.27
				l-7.09-3.62L74.67,0l7.08,3.62L81.1,4.89z"/>
			<path class="st0" d="M92.66,12.35l-7.85,8.94l-1.3-1.14l1.62-10.84l-6.08,6.92l-1.28-1.12l7.85-8.94l1.3,1.14l-1.6,10.81
				l6.06-6.9L92.66,12.35z"/>
			<path class="st0" d="M95.53,15.62l5.14,7.54l-1.18,0.8L97.4,20.9l-8.66,5.89l-0.96-1.41l8.66-5.89l-2.1-3.08L95.53,15.62z"/>
			<path class="st0" d="M104.02,34.83l-2.23-5.84l-3.48,1.33l1.67,4.38l-1.33,0.51l-1.67-4.38l-3.64,1.39l2.23,5.84l-1.33,0.51
				l-2.84-7.43l11.12-4.25l2.84,7.43L104.02,34.83z"/>
			<path class="st0" d="M107.03,43.07c0.12,0.93,0.06,1.72-0.18,2.36c-0.24,0.64-0.61,1.15-1.09,1.52
				c-0.49,0.37-1.06,0.59-1.71,0.68c-0.43,0.06-0.86,0.04-1.29-0.05c-0.44-0.09-0.85-0.28-1.23-0.56c-0.39-0.28-0.71-0.67-0.98-1.17
				c-0.27-0.5-0.45-1.11-0.54-1.84l-0.36-2.71l-4.77,0.63l-0.22-1.68l11.8-1.56L107.03,43.07z M100.72,45l-4.91,3.96l-0.25-1.9
				l4.93-3.84L100.72,45z M103.82,45.93c0.64-0.08,1.13-0.34,1.46-0.78c0.33-0.43,0.44-1.06,0.33-1.9l-0.36-2.7l-4.2,0.55l0.36,2.71
				c0.07,0.55,0.22,0.99,0.44,1.31c0.22,0.33,0.5,0.55,0.83,0.68C103.03,45.95,103.41,45.99,103.82,45.93z"/>
		</g>
		<g>
			<path class="st0" d="M26.01,94.57l5.57,2.84l1.69-3.32l-4.18-2.13l0.65-1.27l4.18,2.13l1.77-3.47l-5.57-2.84l0.65-1.27l7.09,3.62
				l-5.41,10.6l-7.09-3.62L26.01,94.57z"/>
			<path class="st0" d="M14.43,87.1l7.85-8.94l1.3,1.14l-1.62,10.84l6.08-6.92l1.28,1.12l-7.85,8.94l-1.3-1.14l1.6-10.81l-6.06,6.9
				L14.43,87.1z"/>
			<path class="st0" d="M11.56,83.83l-5.14-7.54l1.18-0.8l2.09,3.06l8.66-5.9l0.96,1.41l-8.66,5.89l2.1,3.08L11.56,83.83z"/>
			<path class="st0" d="M3.07,64.62l2.23,5.84l3.48-1.33l-1.67-4.38l1.33-0.51l1.67,4.38l3.64-1.39l-2.23-5.84l1.33-0.51l2.84,7.43
				L4.58,72.56l-2.84-7.43L3.07,64.62z"/>
			<path class="st0" d="M0.06,56.38c-0.12-0.93-0.06-1.72,0.18-2.36c0.24-0.64,0.61-1.15,1.09-1.52c0.49-0.37,1.06-0.59,1.71-0.68
				c0.43-0.06,0.86-0.04,1.29,0.05c0.43,0.09,0.84,0.28,1.23,0.56c0.39,0.28,0.71,0.67,0.98,1.17c0.27,0.5,0.45,1.11,0.54,1.84
				l0.36,2.71l4.77-0.63l0.22,1.69l-11.8,1.56L0.06,56.38z M3.27,53.52c-0.64,0.08-1.13,0.34-1.46,0.78
				c-0.33,0.43-0.44,1.06-0.33,1.9l0.36,2.7l4.2-0.55l-0.36-2.71c-0.07-0.55-0.22-0.99-0.44-1.31c-0.22-0.32-0.5-0.55-0.84-0.68
				C4.06,53.5,3.68,53.46,3.27,53.52z M6.37,54.45l4.91-3.96l0.25,1.9l-4.93,3.84L6.37,54.45z"/>
		</g>
	</g>
</g>
</svg>
