<?xml version="1.0" encoding="utf-8"?>
<!-- Generator: Adobe Illustrator 24.0.2, SVG Export Plug-In . SVG Version: 6.00 Build 0)  -->
<svg version="1.1" id="Layer_1" xmlns="http://www.w3.org/2000/svg" xmlns:xlink="http://www.w3.org/1999/xlink" x="0px" y="0px"
	 viewBox="0 0 80 80" style="enable-background:new 0 0 80 80;" xml:space="preserve">
<style type="text/css">
	.st0{opacity:0.4;fill:#FFFFFF;}
	.st1{fill:#FFFFFF;}
</style>
<g>
	<circle class="st0" cx="40" cy="40" r="40"/>
	<g>
		<g>
			<path class="st1" d="M25,29.98c0.11,0.01,0.21,0.01,0.32,0.01c9.79,0,19.57,0,29.36,0c0.11,0,0.21-0.01,0.32-0.01
				c0,1.11,0,2.23,0,3.34c-0.1,0-0.19,0.01-0.29,0.01c-9.81,0-19.61,0-29.42,0c-0.1,0-0.19-0.01-0.29-0.01
				C25,32.21,25,31.09,25,29.98z"/>
		</g>
		<g>
			<path class="st1" d="M55,50.02c-0.11-0.01-0.21-0.01-0.32-0.01c-9.79,0-19.57,0-29.36,0c-0.11,0-0.21,0.01-0.32,0.01
				c0-1.11,0-2.23,0-3.34c0.1,0,0.19-0.01,0.29-0.01c9.81,0,19.61,0,29.42,0c0.1,0,0.19,0.01,0.29,0.01C55,47.79,55,48.91,55,50.02z
				"/>
		</g>
		<g>
			<path class="st1" d="M55,41.64c-0.12,0.01-0.23,0.02-0.35,0.02c-9.77,0-19.54,0-29.3,0c-0.12,0-0.23-0.01-0.35-0.02
				c0-1.09,0-2.19,0-3.28c0.12-0.01,0.23-0.02,0.35-0.02c9.77,0,19.54,0,29.3,0c0.12,0,0.23,0.01,0.35,0.02
				C55,39.45,55,40.55,55,41.64z"/>
		</g>
	</g>
</g>
</svg>
