<?xml version="1.0" encoding="utf-8"?>
<!-- Generator: Adobe Illustrator 24.0.2, SVG Export Plug-In . SVG Version: 6.00 Build 0)  -->
<svg version="1.1" id="Layer_1" xmlns="http://www.w3.org/2000/svg" xmlns:xlink="http://www.w3.org/1999/xlink" x="0px" y="0px"
	 viewBox="0 0 80 80" style="enable-background:new 0 0 80 80;" xml:space="preserve">
<style type="text/css">
	.st0{opacity:0.4;fill:#FFFFFF;enable-background:new    ;}
	.st1{fill:#FFFFFF;}
</style>
<g>
	<circle class="st0" cx="40" cy="40" r="40"/>
	<g>
		<path class="st1" d="M53.2,55.4c0-0.1-0.1-0.1-0.1-0.2c-1.1-1.1-2.1-2.1-3.2-3.2c0,0-0.1-0.1-0.2-0.1c-1.9,1.5-3.9,2.5-6.3,3.1
			c0-0.5,0-0.9,0-1.4c0-0.6,0-1.2,0-1.9c0-0.2,0.1-0.3,0.3-0.4c1.3-0.4,2.5-1.1,3.5-1.9c-2.4-2.4-4.8-4.8-7.2-7.2
			c0,3.8,0,7.6,0,11.4c-0.1-0.1-0.2-0.2-0.3-0.3c-2.7-2.7-5.4-5.4-8.1-8.1c-0.2-0.2-0.3-0.2-0.6-0.2c-2,0-4.1,0-6.1,0
			c-0.1,0-0.2,0-0.4,0c0-3.4,0-6.8,0-10.3c2.7,0,5.3,0,8,0c-2.7-2.7-5.3-5.4-8-8c0.8-0.8,1.5-1.5,2.2-2.2c0,0,0.1,0.1,0.2,0.2
			c9.4,9.4,18.8,18.8,28.1,28.1c0.1,0.1,0.2,0.2,0.3,0.3c0,0,0,0,0,0.1C54.7,53.9,54,54.7,53.2,55.4C53.2,55.4,53.2,55.4,53.2,55.4z
			"/>
		<path class="st1" d="M55.4,40.9c-0.1,0.6-0.1,1.2-0.2,1.7c-0.3,1.5-0.8,3-1.5,4.5c-0.2-0.2-0.3-0.3-0.4-0.5
			c-0.6-0.6-1.3-1.3-1.9-1.9c-0.2-0.2-0.2-0.3-0.1-0.5c0.7-1.8,1-3.6,0.7-5.4c-0.5-4.1-2.6-7.2-6.2-9.3c-0.6-0.4-1.4-0.6-2.1-0.9
			c-0.1-0.1-0.2-0.1-0.2-0.3c0-1.1,0-2.1,0-3.2c0,0,0-0.1,0-0.1c0.4,0.1,0.9,0.2,1.3,0.4c3.3,1.1,6,3.1,8,6c1.4,2.1,2.3,4.4,2.6,6.9
			c0,0.4,0.1,0.8,0.1,1.1C55.4,39.8,55.4,40.4,55.4,40.9z"/>
		<path class="st1" d="M43.4,33.1c2.8,1.3,4.7,4.6,4.2,7.9c-0.1-0.1-0.1-0.1-0.2-0.2c-1.3-1.3-2.5-2.5-3.8-3.8
			c-0.1-0.1-0.2-0.2-0.2-0.3C43.4,35.5,43.4,34.3,43.4,33.1z"/>
		<path class="st1" d="M40,26.3c0,2.3,0,4.7,0,6.9c-1.1-1.2-2.3-2.3-3.5-3.5C37.6,28.7,38.8,27.5,40,26.3z"/>
	</g>
</g>
</svg>
