<?xml version="1.0" encoding="utf-8"?>
<!-- Generator: Adobe Illustrator 24.0.2, SVG Export Plug-In . SVG Version: 6.00 Build 0)  -->
<svg version="1.1" id="Layer_1" xmlns="http://www.w3.org/2000/svg" xmlns:xlink="http://www.w3.org/1999/xlink" x="0px" y="0px"
	 viewBox="0 0 34 34" style="enable-background:new 0 0 34 34;" xml:space="preserve">
<style type="text/css">
	.st0{fill:#663614;}
</style>
<g>
	<g>
		<path class="st0" d="M14.6,0.5c0.1,0,0.2,0.1,0.2,0.1c0.7,0.3,1.2,1,1,1.7c-0.1,0.7-0.7,1.3-1.5,1.3c-2.1,0-4.2,0-6.3,0
			C6.1,3.7,4.3,5,3.8,7C3.7,7.4,3.6,7.8,3.6,8.2c0,5.9,0,11.7,0,17.6c0,2.6,2,4.6,4.6,4.6c5.9,0,11.8,0,17.6,0c2.6,0,4.6-2,4.6-4.6
			c0-2.1,0-4.1,0-6.2c0-0.7,0.4-1.2,1-1.4c0.6-0.2,1.3,0,1.7,0.5c0.2,0.3,0.4,0.7,0.4,1c0,2.1,0,4.3,0,6.4c-0.1,3.8-3.1,7-6.9,7.4
			c-0.3,0-0.6,0-0.9,0c-5.8,0-11.6,0-17.4,0c-3.7,0-6.7-2.4-7.6-5.8c-0.1-0.4-0.2-0.8-0.2-1.2c0-6.3,0-12.5,0-18.8
			c0-0.1,0-0.2,0.1-0.3C1,4.2,2.7,2.1,5.6,1c0.6-0.2,1.3-0.3,2-0.5C9.9,0.5,12.3,0.5,14.6,0.5z"/>
		<path class="st0" d="M32.2,0.5c0.6,0.2,1.1,0.6,1.2,1.3c0,0.1,0,0.2,0,0.3c0,3.2,0,6.4,0,9.6c0,0.7-0.4,1.2-1,1.5
			c-0.6,0.2-1.3,0.1-1.7-0.4c-0.3-0.3-0.4-0.7-0.4-1.1c0-1.8,0-3.6,0-5.5c0-0.1,0-0.2,0-0.3C30.3,6,30.2,6,30.1,6.1
			c-4,3.9-7.9,7.9-11.9,11.9c-0.5,0.5-1,0.7-1.7,0.5c-1.1-0.3-1.5-1.6-0.8-2.5c0.1-0.1,0.2-0.2,0.3-0.3C20,11.8,24,7.9,27.9,3.9
			c0.1-0.1,0.2-0.1,0.3-0.2c0,0,0-0.1,0-0.1c-0.1,0-0.2,0-0.3,0c-1.8,0-3.6,0-5.4,0c-0.4,0-0.8-0.1-1.2-0.4
			c-0.8-0.7-0.6-2.1,0.4-2.6c0.1,0,0.2-0.1,0.3-0.1C25.4,0.5,28.8,0.5,32.2,0.5z"/>
	</g>
</g>
</svg>
