<?xml version="1.0" encoding="utf-8"?>
<!-- Generator: Adobe Illustrator 24.0.2, SVG Export Plug-In . SVG Version: 6.00 Build 0)  -->
<svg version="1.1" id="Layer_1" xmlns="http://www.w3.org/2000/svg" xmlns:xlink="http://www.w3.org/1999/xlink" x="0px" y="0px"
	 viewBox="0 0 40.72 58.15" style="enable-background:new 0 0 40.72 58.15;" xml:space="preserve">
<style type="text/css">
	.st0{fill:#FFFEF4;}
</style>
<g>
	<path class="st0" d="M40.69,29.13c0,3.17,0.06,6.34-0.01,9.51c-0.22,9.61-7.79,18.03-17.32,19.31
		C12.47,59.42,2.72,52.63,0.45,41.93c-0.29-1.35-0.4-2.77-0.41-4.15C-0.01,32-0.01,26.23,0.03,20.46
		C0.09,11.44,5.56,3.88,14.02,1.04c11.66-3.92,24.34,3.69,26.37,15.83c0.21,1.28,0.29,2.59,0.31,3.88c0.04,2.79,0.01,5.58,0.01,8.38
		C40.7,29.13,40.69,29.13,40.69,29.13z M2.91,29.08c0,2.01-0.03,4.02,0.01,6.03c0.04,1.89,0,3.8,0.28,5.66
		c1.48,9.7,11.34,16.32,20.9,14.1c8.18-1.9,13.69-8.81,13.71-17.22c0.02-5.61,0.02-11.21-0.01-16.82c-0.01-1.18-0.1-2.37-0.28-3.53
		C36.05,8.05,26.66,1.46,17.46,3.17C8.81,4.78,2.93,11.84,2.91,20.63C2.9,23.45,2.91,26.26,2.91,29.08z"/>
	<path class="st0" d="M18.92,23.94c0-5.03,0-10.05,0-15.13c0.96,0,1.87,0,2.86,0c0,5.04,0,10.09,0,15.19
		c2.09-2.1,4.12-4.12,6.13-6.14c0.77,0.8,1.42,1.47,2.1,2.18c-0.08,0.09-0.22,0.25-0.36,0.39c-2.64,2.65-5.27,5.29-7.92,7.93
		c-0.97,0.97-1.68,1.01-2.61,0.09c-2.77-2.75-5.52-5.51-8.28-8.27c-0.06-0.06-0.11-0.15-0.16-0.21c0.67-0.66,1.33-1.3,1.99-1.95
		c1.98,1.99,4,4.02,6.02,6.06C18.77,24.04,18.85,23.99,18.92,23.94z"/>
</g>
</svg>
