<?xml version="1.0" encoding="utf-8"?>
<!-- Generator: Adobe Illustrator 24.0.2, SVG Export Plug-In . SVG Version: 6.00 Build 0)  -->
<svg version="1.1" id="Layer_1" xmlns="http://www.w3.org/2000/svg" xmlns:xlink="http://www.w3.org/1999/xlink" x="0px" y="0px"
	 viewBox="0 0 80 80" style="enable-background:new 0 0 80 80;" xml:space="preserve">
<style type="text/css">
	.st0{opacity:0.4;fill:#FFFFFF;}
	.st1{fill:#FFFFFF;}
</style>
<g>
	<circle class="st0" cx="40" cy="40" r="40"/>
	<g>
		<path class="st1" d="M24.58,34.87c0.18-0.01,0.36-0.02,0.54-0.02c2.01,0,4.02,0,6.02,0c0.21,0,0.35-0.06,0.5-0.21
			c2.69-2.69,5.38-5.38,8.07-8.08c0.08-0.08,0.14-0.17,0.27-0.22c0,9.09,0,18.19,0,27.31c-0.09-0.09-0.17-0.15-0.25-0.23
			c-2.69-2.69-5.38-5.38-8.07-8.08c-0.16-0.16-0.32-0.23-0.55-0.23c-2.06,0.01-4.12,0.01-6.18,0c-0.12,0-0.24-0.01-0.36-0.02
			C24.58,41.7,24.58,38.29,24.58,34.87z"/>
		<path class="st1" d="M43.44,25c5.77,1.17,11.36,6.42,11.93,13.7c0.67,8.52-5.34,14.89-11.91,16.3c-0.01-0.05-0.02-0.09-0.02-0.13
			c0-1.05,0.01-2.11-0.01-3.16c0-0.21,0.11-0.25,0.26-0.3c1.35-0.43,2.59-1.08,3.7-1.96c2.3-1.82,3.83-4.15,4.35-7.04
			c0.91-5.05-0.77-9.14-4.86-12.22c-0.95-0.71-2.02-1.22-3.17-1.57c-0.2-0.06-0.28-0.15-0.28-0.38C43.45,27.15,43.44,26.08,43.44,25
			z"/>
		<path class="st1" d="M43.45,33.13c2.41,1.15,4.45,3.9,4.26,7.32c-0.19,3.3-2.43,5.62-4.26,6.41
			C43.45,42.28,43.45,37.72,43.45,33.13z"/>
	</g>
</g>
</svg>
