<?xml version="1.0" encoding="utf-8"?>
<!-- Generator: Adobe Illustrator 24.0.2, SVG Export Plug-In . SVG Version: 6.00 Build 0)  -->
<svg version="1.1" id="Layer_1" xmlns="http://www.w3.org/2000/svg" xmlns:xlink="http://www.w3.org/1999/xlink" x="0px" y="0px"
	 viewBox="0 0 150.57 62.59" style="enable-background:new 0 0 150.57 62.59;" xml:space="preserve">
<style type="text/css">
	.st0{fill:#FFFFFF;}
</style>
<g>
	<g>
		<g>
			<path class="st0" d="M68.88,13.77h-0.7c-0.2-0.55-0.46-1.14-0.79-1.79c-0.33-0.65-0.78-1.24-1.35-1.79
				c-0.57-0.55-1.24-1.01-2.02-1.38c-0.78-0.37-1.72-0.56-2.82-0.56s-2.1,0.18-3.02,0.53c-0.92,0.35-1.72,0.85-2.41,1.5
				c-0.68,0.65-1.21,1.42-1.58,2.32c-0.37,0.9-0.56,1.88-0.56,2.93c0,1.84,0.46,3.29,1.38,4.34c0.92,1.06,2.06,1.95,3.43,2.67
				c1.37,0.72,2.85,1.37,4.43,1.94c1.59,0.57,3.06,1.26,4.43,2.08c1.37,0.82,2.51,1.88,3.43,3.17c0.92,1.29,1.38,3.01,1.38,5.16
				c0,1.8-0.32,3.5-0.97,5.11c-0.65,1.6-1.59,3-2.82,4.2c-1.23,1.19-2.74,2.11-4.52,2.76c-1.78,0.65-3.81,0.97-6.07,0.97
				c-2.43,0-4.39-0.32-5.9-0.97c-1.51-0.65-2.77-1.38-3.79-2.2c0.35-0.9,1-4.09,1.12-5.22h0.7c0.31,0.7,0.73,1.42,1.26,2.14
				c0.53,0.72,1.17,1.38,1.94,1.97c0.76,0.59,1.65,1.07,2.67,1.44c1.02,0.37,2.15,0.56,3.4,0.56c1.29,0,2.45-0.22,3.49-0.67
				c1.04-0.45,1.92-1.06,2.64-1.82c0.72-0.76,1.28-1.66,1.67-2.7c0.39-1.04,0.59-2.14,0.59-3.32c0-1.8-0.46-3.23-1.38-4.28
				c-0.92-1.06-2.06-1.94-3.43-2.64c-1.37-0.7-2.85-1.35-4.43-1.94c-1.58-0.59-3.06-1.32-4.43-2.2c-1.37-0.88-2.52-2-3.43-3.37
				c-0.92-1.37-1.38-3.21-1.38-5.52c0-1.64,0.29-3.14,0.88-4.49c0.59-1.35,1.44-2.51,2.55-3.49c1.11-0.98,2.45-1.74,4.02-2.29
				c1.57-0.55,3.33-0.82,5.28-0.82c1.88,0,3.5,0.22,4.87,0.67c1.37,0.45,2.64,1.14,3.82,2.08"/>
			<path class="st0" d="M84.55,11.42c-0.12,1.49-0.21,2.94-0.26,4.37c-0.06,1.43-0.13,2.87-0.21,4.31c0.43,0,1.23-0.01,2.41-0.03
				c1.17-0.02,3.81-0.15,3.81-0.15s-0.04,2.35,0,2.46c-0.51-0.04-1.04-0.07-1.58-0.09c-0.55-0.02-1.14-0.03-1.76-0.03h-2.88
				c-0.04,0.16-0.09,0.78-0.15,1.88c-0.06,1.1-0.11,2.4-0.15,3.9c-0.04,1.51-0.07,3.08-0.09,4.72c-0.02,1.64-0.03,3.11-0.03,4.4
				c0,1.1,0.03,2.17,0.09,3.23c0.06,1.06,0.24,2.01,0.56,2.85c0.31,0.84,0.78,1.52,1.41,2.03c0.62,0.51,1.53,0.76,2.7,0.76
				c0.31,0,0.73-0.04,1.26-0.12c0.53-0.08,0.99-0.18,1.38-0.29v1.41c-0.67,0.12-1.4,0.26-2.2,0.44c-0.8,0.18-1.58,0.26-2.32,0.26
				c-2.47,0-4.28-0.61-5.46-1.82c-1.17-1.21-1.76-2.99-1.76-5.34c0-1.06,0.02-2.2,0.06-3.43c0.04-1.23,0.09-2.58,0.15-4.05
				c0.06-1.47,0.11-3.09,0.15-4.87c0.04-1.78,0.06-3.76,0.06-5.96h-1.88c-0.31,0-0.65,0.01-1,0.03c-0.35,0.02-0.72,0.05-1.11,0.09
				c0.04-0.23,0.04-2.33,0-2.52c1.76,0.12,3.05,0.18,3.87,0.18c-0.04-0.78-0.07-1.76-0.09-2.93c-0.02-1.17-0.07-2.39-0.15-3.64
				l4.87-2.05H84.55z"/>
			<path class="st0" d="M96.55,22.8c2.29-2.74,5.62-4.11,10.01-4.11c2.07,0,3.86,0.32,5.37,0.97c1.51,0.65,2.77,1.51,3.79,2.58
				c1.02,1.08,1.77,2.34,2.26,3.79c0.49,1.45,0.73,2.99,0.73,4.64c0,0.39-0.01,0.77-0.03,1.14c-0.02,0.37-0.05,0.75-0.09,1.14
				c-2.11-0.04-4.21-0.08-6.28-0.12c-2.07-0.04-4.17-0.06-6.28-0.06c-1.29,0-2.57,0.02-3.84,0.06c-1.27,0.04-2.55,0.08-3.84,0.12
				c-0.04,0.2-0.06,0.49-0.06,0.88v0.76c0,1.53,0.22,2.95,0.68,4.28c0.45,1.33,1.1,2.48,1.97,3.43c0.86,0.96,1.92,1.72,3.17,2.29
				c1.25,0.57,2.7,0.85,4.34,0.85c0.78,0,1.58-0.11,2.41-0.32c0.82-0.21,1.62-0.51,2.41-0.88c0.78-0.37,1.52-0.81,2.2-1.32
				c0.69-0.51,1.28-1.06,1.79-1.64l0.29,0.18l-0.35,2.88c-1.17,0.94-2.63,1.74-4.37,2.41c-1.74,0.66-3.55,1-5.43,1
				c-2.11,0-4.04-0.32-5.78-0.97c-1.74-0.65-3.25-1.59-4.52-2.82c-1.27-1.23-2.25-2.69-2.93-4.37c-0.69-1.68-1.03-3.5-1.03-5.46
				C93.12,29.32,94.26,25.54,96.55,22.8 M103.01,21.57c-1,0.67-1.82,1.5-2.46,2.49c-0.65,1-1.14,2.09-1.47,3.29
				c-0.33,1.19-0.54,2.32-0.62,3.37c1.21,0.04,2.47,0.08,3.79,0.12c1.31,0.04,2.59,0.06,3.84,0.06c1.29,0,2.6-0.02,3.93-0.06
				c1.33-0.04,2.62-0.08,3.87-0.12c0-1.06-0.09-2.17-0.26-3.34c-0.18-1.17-0.53-2.27-1.06-3.29c-0.53-1.02-1.26-1.86-2.2-2.52
				c-0.94-0.66-2.17-1-3.7-1C105.23,20.57,104,20.91,103.01,21.57"/>
			<path class="st0" d="M129.03,19.28c-0.16,1.02-0.27,2-0.35,2.93c-0.08,0.94-0.12,1.88-0.12,2.82h0.12
				c0.27-0.63,0.67-1.3,1.17-2.02c0.51-0.72,1.16-1.41,1.97-2.05c0.8-0.65,1.77-1.18,2.9-1.61c1.14-0.43,2.43-0.65,3.87-0.65
				c1.49,0,2.95,0.28,4.4,0.85c1.45,0.57,2.73,1.44,3.84,2.61c1.12,1.17,2.01,2.67,2.7,4.49c0.69,1.82,1.03,3.98,1.03,6.48
				c0,2.5-0.37,4.68-1.12,6.51c-0.74,1.84-1.71,3.36-2.9,4.58c-1.19,1.21-2.55,2.1-4.08,2.67c-1.53,0.57-3.05,0.85-4.58,0.85
				c-4.3,0-7.37-1.86-9.21-5.58h-0.12v3.7c0,1.25,0.01,2.65,0.03,4.2c0.02,1.55,0.05,3.08,0.09,4.61c0.04,1.53,0.09,2.98,0.15,4.37
				c0.06,1.39,0.21,3.55,0.21,3.55h-5.28c0.08-0.98,0.15-2.16,0.21-3.55c0.06-1.39,0.11-2.85,0.15-4.37
				c0.04-1.53,0.07-3.06,0.09-4.61c0.02-1.55,0.03-2.94,0.03-4.2v-9.51c0-1.33-0.01-2.78-0.03-4.34c-0.02-1.56-0.05-3.12-0.09-4.67
				c-0.04-1.55-0.09-3.02-0.15-4.43c-0.06-1.41-0.13-2.62-0.21-3.64 M144.67,27.26c-0.49-1.53-1.12-2.75-1.88-3.67
				c-0.76-0.92-1.63-1.56-2.61-1.91c-0.98-0.35-1.94-0.53-2.88-0.53c-1.57,0-2.9,0.33-4.02,1c-1.11,0.67-2.03,1.55-2.73,2.67
				c-0.7,1.12-1.21,2.43-1.53,3.93c-0.31,1.51-0.47,3.1-0.47,4.78c0,8.14,2.86,12.21,8.57,12.21c1.41,0,2.63-0.32,3.67-0.97
				c1.04-0.65,1.9-1.55,2.58-2.7c0.68-1.15,1.19-2.5,1.52-4.05c0.33-1.55,0.5-3.2,0.5-4.96C145.41,30.73,145.16,28.79,144.67,27.26"
				/>
			<path class="st0" d="M17.21,5.67c-0.95-0.06-1.82-0.12-2.61-0.18c-0.79-0.06-1.62-0.12-2.5-0.18c-0.88-0.06-1.84-0.11-2.88-0.16
				C8.18,5.11,6.93,5.09,5.47,5.09C5.44,6.04,5.41,6.95,5.36,7.81c-0.04,0.86-0.07,1.84-0.07,2.94c0,1.16,0.01,2.29,0.02,3.39
				c0.01,1.1,0.02,1.93,0.02,2.5c1.31,0,2.48-0.02,3.52-0.04c1.04-0.03,1.99-0.07,2.86-0.11c0.86-0.04,1.66-0.09,2.39-0.13
				c0.73-0.04,2.07-0.16,2.07-0.16v2.72c0,0-1.67-0.16-2.7-0.22c-1.03-0.06-2.05-0.1-3.08-0.11c-1.03-0.01-1.99-0.03-2.9-0.04
				c-0.91-0.02-1.63-0.02-2.16-0.02c0,0.27-0.01,0.56-0.02,0.87C5.3,19.7,5.29,20.1,5.29,20.57v1.74v2.68c0,1.7,0.01,3.09,0.02,4.19
				c0.01,1.1,0.04,1.93,0.07,2.5h3.12c1.13,0,2.24-0.02,3.32-0.07c1.09-0.04,2.11-0.11,3.08-0.18c0.96-0.07,1.81-0.19,2.52-0.33
				c-0.06,0.21,0,2.54,0,2.54s-2.67-0.09-3.99-0.09H9.4H5.34c-1.34,0-2.69,0.03-4.06,0.09c0.09-1.9,0.09-28.75,0-30.66
				c1.34,0.06,2.67,0.11,4,0.16c1.32,0.04,2.66,0.07,3.99,0.07c1.34,0,2.66-0.02,3.97-0.07c1.31-0.04,2.63-0.1,3.97-0.16"/>
			<path class="st0" d="M26.98,0c-0.06,0.74-0.11,1.64-0.16,2.7c-0.04,1.06-0.08,2.16-0.11,3.32c-0.03,1.16-0.05,2.34-0.07,3.53
				c-0.01,1.19-0.02,2.29-0.02,3.3v8.12c0,0.56,0.18,0.85,0.53,0.85c0.24,0,0.5-0.1,0.78-0.31c0.28-0.21,0.6-0.45,0.96-0.71
				c0.27-0.21,0.72-0.61,1.36-1.2c0.64-0.6,1.35-1.29,2.14-2.07c0.79-0.79,1.6-1.63,2.43-2.52c0.83-0.89,1.59-1.74,2.28-2.54
				c0.59,0.15,3.42,0.06,3.93,0c-1.87,1.52-3.67,3.01-5.38,4.49c-1.71,1.47-3.34,2.97-4.89,4.48c1.7,2.05,3.44,4.11,5.24,6.16
				c1.8,2.05,5.51,6.07,5.51,6.07s-0.96-0.09-1.36-0.09c-0.4,0-3.46,0.09-3.46,0.09s-1.4-1.61-2.23-2.61
				c-0.83-1-1.66-1.98-2.48-2.97c-0.82-0.98-1.6-1.9-2.34-2.77c-0.75-0.86-1.38-1.58-1.92-2.14c-0.09-0.12-0.19-0.22-0.31-0.31
				c-0.12-0.09-0.24-0.13-0.36-0.13c-0.3,0-0.45,0.18-0.45,0.54v2.68c0,1.34,0.02,2.64,0.07,3.9c0.04,1.26,0.14,2.54,0.29,3.82
				c-0.69-0.06-3.33-0.06-4.02,0c0.06-0.68,0.11-1.55,0.15-2.59c0.04-1.04,0.08-2.14,0.11-3.3c0.03-1.16,0.05-2.34,0.07-3.53
				c0.01-1.19,0.02-2.29,0.02-3.3v-8.08c0-1.01-0.01-2.11-0.02-3.3c-0.02-1.19-0.04-2.37-0.07-3.53c-0.03-1.16-0.07-2.27-0.11-3.32
				c-0.04-1.06-0.1-1.96-0.15-2.7"/>
			<rect y="40.98" class="st0" width="42.71" height="2.89"/>
		</g>
	</g>
</g>
</svg>
