<?xml version="1.0" encoding="utf-8"?>
<!-- Generator: Adobe Illustrator 24.0.2, SVG Export Plug-In . SVG Version: 6.00 Build 0)  -->
<svg version="1.1" id="Layer_1" xmlns="http://www.w3.org/2000/svg" xmlns:xlink="http://www.w3.org/1999/xlink" x="0px" y="0px"
	 viewBox="0 0 3565.3 1219.7" style="enable-background:new 0 0 3565.3 1219.7;" xml:space="preserve">
<style type="text/css">
	.st0{fill:#FFFFFF;}
</style>
<path class="st0" d="M693.3,943.9V24.3c0-9,4.5-13.5,13.5-13.5h69c9,0,13.5,4.5,13.5,13.5v549c0,1.8,0.9,3.2,2.7,4.1
	c1.8,0.9,3.2,0.5,4.1-1.3l244.8-294.8c4.5-5.4,9.9-8.1,16.2-8.1h77.1c5.4,0,9,1.6,10.8,4.7c1.8,3.2,0.9,7-2.7,11.5l-154.2,192
	c-1.8,2.7-2.3,5-1.3,6.8l182.6,453l1.4,5.4c0,7.2-4.1,10.8-12.2,10.8h-71.7c-7.2,0-12.2-3.6-14.9-10.8L924.5,559.8
	c-0.9-1.8-2.3-2.9-4.1-3.4c-1.8-0.4-3.2,0.2-4.1,2L792,708.6c-1.8,3.6-2.7,5.9-2.7,6.8v228.5c0,9-4.5,13.5-13.5,13.5h-69
	C697.8,957.4,693.3,952.9,693.3,943.9L693.3,943.9z"/>
<path class="st0" d="M1366,901.3c-50-44.6-75.1-104.3-75.1-179.2v-36.5c0-9,4.5-13.5,13.5-13.5h66.3c9,0,13.5,4.5,13.5,13.5v31.1
	c0,50.5,17.1,91.1,51.4,121.7c34.2,30.7,79.8,46,136.6,46c53.2,0,95.1-14.4,125.8-43.3c30.6-28.8,46-66.7,46-113.6
	c0-30.6-7.2-57.2-21.6-79.8c-14.4-22.5-35.6-43.3-63.6-62.2c-27.9-18.9-68.1-42.8-120.4-71.7c-55.9-29.8-99.9-55.9-131.8-78.4
	c-32-22.5-57.9-50-77.8-82.5c-19.8-32.4-29.8-72.1-29.8-119c0-73,23.4-130.3,70.3-171.7c46.9-41.4,109.5-62.2,188-62.2
	c83.8,0,150.5,23,200.1,69c49.6,46,74.4,106.8,74.4,182.6v31.1c0,9-4.5,13.5-13.5,13.5h-67.6c-9,0-13.5-4.5-13.5-13.5v-29.8
	c0-50.5-16.2-91.3-48.7-122.4c-32.5-31.1-77.1-46.7-133.9-46.7c-50.5,0-89.9,13.1-118.3,39.2c-28.4,26.2-42.6,63.1-42.6,110.9
	c0,30.7,6.8,56.3,20.3,77.1c13.5,20.8,33.1,39.7,58.8,56.8c25.7,17.1,65.1,40.1,118.3,69c61.3,34.3,108.4,63.3,141.3,87.2
	c32.9,23.9,59,51.4,78.4,82.5c19.4,31.1,29.1,69.2,29.1,114.3c0,75.7-24.3,135.9-73,180.5c-48.7,44.6-114.9,66.9-198.8,66.9
	S1416,945.9,1366,901.3L1366,901.3z"/>
<path class="st0" d="M2275.4,348.9h-128.5c-3.6,0-5.4,1.8-5.4,5.4V760c0,42.4,8.3,71.9,25,88.6c16.7,16.7,43.5,25,80.5,25h23
	c9,0,13.5,4.5,13.5,13.5v56.8c0,9-4.5,13.5-13.5,13.5l-41.9,1.4c-58.6,0-103.2-11.9-133.9-35.8c-30.7-23.9-46-68.3-46-133.2V354.3
	c0-3.6-1.8-5.4-5.4-5.4h-67.6c-9,0-13.5-4.5-13.5-13.5v-48.7c0-9,4.5-13.5,13.5-13.5h67.6c3.6,0,5.4-1.8,5.4-5.4V113.6
	c0-9,4.5-13.5,13.5-13.5h66.3c9,0,13.5,4.5,13.5,13.5v154.2c0,3.6,1.8,5.4,5.4,5.4h128.5c9,0,13.5,4.5,13.5,13.5v48.7
	C2288.9,344.4,2284.4,348.9,2275.4,348.9L2275.4,348.9z"/>
<path class="st0" d="M2761,858c24.8-17.6,42.6-41.2,53.4-71c2.7-8.1,8.1-11.3,16.2-9.5l62.2,12.2c4.5,0.9,7.4,2.9,8.8,6.1
	c1.4,3.2,1.6,6.6,0.7,10.1c-15.3,50.5-43.3,90.2-83.8,119c-40.6,28.9-89.7,43.3-147.4,43.3c-65.8,0-119.5-17.4-160.9-52.1
	c-41.5-34.7-67.2-81.8-77.1-141.3c-3.6-22.5-5.9-49.1-6.8-79.8c-0.9-30.6-1.4-56.1-1.4-76.4V576c0-46,1.8-83.4,5.4-112.2
	c7.2-60.4,32.2-109.1,75.1-146c42.8-36.9,96.7-55.4,161.6-55.4c69.4,0,125.8,19.8,169,59.5c43.3,39.7,67.6,91.9,73,156.9
	c2.7,29.8,4.1,84.3,4.1,163.6c0,9-4.5,13.5-13.5,13.5h-373.2c-3.6,0-5.4,1.8-5.4,5.4c0,27.9,0.9,59.1,2.7,93.3
	c4.5,38.8,20.1,70.1,46.6,94c26.6,23.9,60.6,35.8,102.1,35.8C2706.6,884.4,2736.2,875.6,2761,858z M2568.9,382
	c-25.7,23.9-40.8,55.2-45.3,94c-1.8,37.9-2.7,69.4-2.7,94.7c0,3.6,1.8,5.4,5.4,5.4h285.3c3.6,0,5.4-1.8,5.4-5.4
	c0-26.1-1.8-57.2-5.4-93.3c-4.5-38.8-19.6-70.3-45.3-94.7c-25.7-24.3-58.4-36.5-98-36.5S2594.6,358.1,2568.9,382L2568.9,382z"/>
<path class="st0" d="M3565.3,608.5c0,61.3-4.5,114.9-13.5,160.9c-14.4,67.6-39.9,117.4-76.4,149.4c-36.5,32-85,48-145.4,48
	c-37,0-67.4-6.3-91.3-18.9c-23.9-12.6-43.1-31.1-57.5-55.4c-0.9-2.7-2.3-3.8-4-3.4c-1.8,0.5-2.7,2-2.7,4.7v312.4
	c0,9-4.5,13.5-13.5,13.5h-69c-9,0-13.5-4.5-13.5-13.5V286.7c0-9,4.5-13.5,13.5-13.5h69c9,0,13.5,4.5,13.5,13.5V338
	c0,2.7,0.9,4.3,2.7,4.7c1.8,0.5,3.1-0.7,4-3.4c32.5-51.4,84.3-77.1,155.5-77.1c56.8,0,102.1,15.1,135.9,45.3
	c33.8,30.2,58.8,78.7,75,145.4C3559.4,500.8,3565.3,552.6,3565.3,608.5L3565.3,608.5z M3467.9,615.3c0-72.1-6.8-128.5-20.3-169
	c-11.7-33.3-28-58.6-48.7-75.7c-20.8-17.1-47.8-25.7-81.1-25.7c-31.6,0-57,8.6-76.4,25.7c-19.4,17.1-34.5,41.9-45.3,74.4
	c-13.5,40.6-20.3,97.4-20.3,170.4s7.6,133,23,174.4c10.8,30.7,25.2,54.1,43.3,70.3c18,16.2,42.4,24.3,73,24.3
	c59.5,0,101.9-30.2,127.1-90.6C3459.4,747.8,3467.9,688.3,3467.9,615.3L3467.9,615.3z"/>
<path class="st0" d="M514.5,94.6H12.4c-6,0-10.8-3.8-10.8-8.4V18.9c0-4.6,4.8-8.4,10.8-8.4h502.1c6,0,10.8,3.8,10.8,8.4v67.3
	C525.3,90.8,520.5,94.6,514.5,94.6z"/>
<path class="st0" d="M514.5,957.4H12.4c-6,0-10.8-3.8-10.8-8.4v-67.3c0-4.6,4.8-8.4,10.8-8.4h502.1c6,0,10.8,3.8,10.8,8.4V949
	C525.3,953.6,520.5,957.4,514.5,957.4z"/>
<circle class="st0" cx="126.9" cy="483.9" r="126.9"/>
</svg>
