<?xml version="1.0" encoding="utf-8"?>
<!-- Generator: Adobe Illustrator 24.0.2, SVG Export Plug-In . SVG Version: 6.00 Build 0)  -->
<svg version="1.1" id="Layer_1" xmlns="http://www.w3.org/2000/svg" xmlns:xlink="http://www.w3.org/1999/xlink" x="0px" y="0px"
	 viewBox="0 0 445.74 118.03" style="enable-background:new 0 0 445.74 118.03;" xml:space="preserve">
<style type="text/css">
	.st0{fill:#FFFFFF;}
</style>
<g>
	<g>
		<g>
			<g>
				<rect x="421.49" y="57.7" class="st0" width="24.24" height="10.37"/>
				<path class="st0" d="M164.68,35.76c-6.61,0-10.89,2.71-13.52,7.44V30.73c3.61-2.1,8.11-3.16,13.52-3.16
					c19.16,0,27.95,12.62,27.95,34.64c0,13.52-3.53,23.44-10.74,28.93V62.21C181.89,46.36,177.68,35.76,164.68,35.76z"/>
				<path class="st0" d="M99.7,27.57c-5.33,0-9.84,0.98-13.6,2.85v11.72c2.86-4.43,7.36-6.39,13.3-6.39
					c10.52,0,16.23,6.54,16.15,22.69H82.42v-25.7c-7.81,5.94-11.04,16.53-11.04,29.38c0,1.54,0.05,3.02,0.14,4.44h11.06c0,0,0,0,0,0
					h43.73c0.08-1.5,0.15-3.76,0.15-6.24C126.45,38.39,116.9,27.57,99.7,27.57z"/>
				<path class="st0" d="M328.32,27.57c-5.33,0-9.84,0.98-13.6,2.85v11.72c2.85-4.43,7.36-6.39,13.3-6.39
					c10.52,0,16.23,6.54,16.15,22.69h-14.8v8.11h25.55c0.08-1.5,0.15-3.76,0.15-6.24C355.06,38.39,345.52,27.57,328.32,27.57z"/>
				<polygon class="st0" points="274.6,62.89 284.97,62.89 284.97,0 267.91,0 267.91,8.19 274.6,8.19 				"/>
				<path class="st0" d="M237.98,87.81c-1.34,0.31-2.8,0.47-4.4,0.47c-12.92,0-16.45-10.44-16.45-26.22V28.55h-17.06v8.19h6.69
					v81.29h10.37V87.68c2.93,4.58,9.09,8.79,19.01,8.79c0.62,0,1.24-0.02,1.85-0.06V87.81z"/>
				<path class="st0" d="M35.99,27.57c-6.84,0-11.8,2.03-15.25,4.81v10.14c2.55-4.21,6.54-6.69,12.77-6.69
					c13,0,17.21,10.44,17.21,26.22c0,11.88-2.39,20.74-9.12,24.39v9.52c11.54-2.21,19.79-11.96,19.79-33.91
					C61.38,36.74,50.41,27.57,35.99,27.57z"/>
				<rect x="407.43" y="29.77" class="st0" width="10.37" height="24.24"/>
				<rect x="407.43" y="57.7" class="st0" width="10.37" height="10.37"/>
				<rect x="379.5" y="57.7" class="st0" width="24.24" height="10.37"/>
				<path class="st0" d="M136.73,62.21c0-13.6,3.53-23.44,10.74-28.93v28.93c0,15.78,4.21,26.37,17.21,26.37
					c6.54,0,10.82-2.71,13.52-7.44v12.47c-3.61,2.1-8.11,3.16-13.52,3.16C145.53,96.77,136.73,84.15,136.73,62.21z"/>
				<path class="st0" d="M103.83,88.28c-12.21,0-19.85-5.71-21.08-18.03H71.86c2.45,19.4,14.13,26.37,30.77,26.37
					c10.22,0,16.98-2.63,19.83-3.83l-0.68-8.64C118.41,85.65,112.02,88.28,103.83,88.28z"/>
				<path class="st0" d="M332.45,88.28c-13.37,0-21.26-6.84-21.26-21.71h14.5v-8.11h-14.65v-25.7
					c-7.81,5.94-11.04,16.53-11.04,29.38c0,25.62,12.47,34.49,31.25,34.49c10.22,0,16.98-2.63,19.84-3.83l-0.68-8.64
					C347.02,85.65,340.64,88.28,332.45,88.28z"/>
				<polygon class="st0" points="284.97,87.38 284.97,66.57 274.6,66.57 274.6,95.57 290.9,95.57 290.9,87.38 				"/>
				<path class="st0" d="M236.06,27.57c-6.84,0-11.8,2.03-15.25,4.81v10.14c2.55-4.21,6.54-6.69,12.77-6.69
					c13,0,17.21,10.44,17.21,26.22c0,11.88-2.39,20.74-9.12,24.39v9.52c11.54-2.21,19.79-11.96,19.79-33.91
					C261.45,36.74,250.48,27.57,236.06,27.57z"/>
				<path class="st0" d="M37.91,87.81c-1.34,0.31-2.8,0.47-4.4,0.47c-12.92,0-16.45-10.44-16.45-26.22V28.55H0v8.19h6.69v81.29
					h10.37V87.68c2.93,4.58,9.09,8.79,19.01,8.79c0.62,0,1.24-0.02,1.85-0.06V87.81z"/>
				<rect x="407.43" y="71.76" class="st0" width="10.37" height="24.24"/>
			</g>
		</g>
	</g>
</g>
</svg>
