<?xml version="1.0" encoding="UTF-8"?>
<svg id="Layer_1" data-name="Layer 1" xmlns="http://www.w3.org/2000/svg" viewBox="0 0 879.32 370.72">
  <defs>
    <style>
      .cls-1 {
        fill: #fff;
        stroke-width: 0px;
      }
    </style>
  </defs>
  <g>
    <rect class="cls-1" x="652.87" y="105.36" width="32.87" height="14.06"/>
    <path class="cls-1" d="m304.68,75.61c-8.96,0-14.77,3.67-18.34,10.09v-16.91c4.89-2.85,11-4.28,18.34-4.28,25.98,0,37.89,17.11,37.89,46.96,0,18.34-4.79,31.78-14.57,39.22v-39.22c0-21.49-5.7-35.86-23.33-35.86Z"/>
    <path class="cls-1" d="m216.57,64.51c-7.23,0-13.34,1.32-18.44,3.87v15.89c3.87-6.01,9.98-8.66,18.03-8.66,14.26,0,22,8.86,21.9,30.76h-44.92v-34.84c-10.59,8.05-14.97,22.41-14.97,39.83,0,2.09.06,4.09.18,6.01h14.99s0,0,0,0h59.29c.1-2.04.2-5.09.2-8.46,0-29.74-12.94-44.41-36.26-44.41Z"/>
    <path class="cls-1" d="m526.53,64.51c-7.23,0-13.34,1.32-18.44,3.87v15.89c3.87-6.01,9.98-8.66,18.03-8.66,14.26,0,22,8.86,21.9,30.76h-20.07v11h34.63c.1-2.04.2-5.09.2-8.46,0-29.74-12.94-44.41-36.26-44.41Z"/>
    <polygon class="cls-1" points="453.71 112.39 467.76 112.39 467.76 27.12 444.64 27.12 444.64 38.23 453.71 38.23 453.71 112.39"/>
    <path class="cls-1" d="m404.06,146.19c-1.82.42-3.8.63-5.97.63-17.52,0-22.31-14.16-22.31-35.55v-45.43h-23.12v11.1h9.07v110.22h14.06v-41.15c3.97,6.21,12.33,11.92,25.77,11.92.85,0,1.68-.03,2.51-.08v-11.66Z"/>
    <path class="cls-1" d="m130.19,64.51c-9.27,0-15.99,2.75-20.68,6.52v13.75c3.46-5.71,8.86-9.07,17.32-9.07,17.62,0,23.33,14.16,23.33,35.55,0,16.11-3.24,28.12-12.37,33.07v12.9c15.65-2.99,26.83-16.21,26.83-45.97,0-34.33-14.87-46.76-34.43-46.76Z"/>
    <rect class="cls-1" x="633.8" y="67.49" width="14.06" height="32.87"/>
    <rect class="cls-1" x="633.8" y="105.36" width="14.06" height="14.06"/>
    <rect class="cls-1" x="595.93" y="105.36" width="32.87" height="14.06"/>
    <path class="cls-1" d="m266.78,111.47c0-18.44,4.79-31.78,14.57-39.22v39.22c0,21.39,5.7,35.76,23.33,35.76,8.86,0,14.67-3.67,18.34-10.09v16.91c-4.89,2.85-11,4.28-18.34,4.28-25.98,0-37.89-17.11-37.89-46.86Z"/>
    <path class="cls-1" d="m222.17,146.82c-16.56,0-26.91-7.74-28.58-24.45h-14.76c3.32,26.3,19.16,35.75,41.72,35.75,13.85,0,23.02-3.57,26.89-5.2l-.92-11.71c-4.58,2.04-13.24,5.6-24.35,5.6Z"/>
    <path class="cls-1" d="m532.14,146.82c-18.13,0-28.83-9.27-28.83-29.44h19.66v-11h-19.86v-34.84c-10.59,8.05-14.97,22.41-14.97,39.83,0,34.74,16.91,46.76,42.38,46.76,13.85,0,23.02-3.57,26.89-5.2l-.92-11.71c-4.58,2.04-13.24,5.6-24.35,5.6Z"/>
    <polygon class="cls-1" points="467.76 145.59 467.76 117.38 453.71 117.38 453.71 156.7 475.81 156.7 475.81 145.59 467.76 145.59"/>
    <path class="cls-1" d="m401.45,64.51c-9.27,0-15.99,2.75-20.68,6.52v13.75c3.46-5.71,8.86-9.07,17.32-9.07,17.62,0,23.33,14.16,23.33,35.55,0,16.11-3.24,28.12-12.37,33.07v12.9c15.65-2.99,26.83-16.21,26.83-45.97,0-34.33-14.87-46.76-34.43-46.76Z"/>
    <path class="cls-1" d="m132.8,146.19c-1.82.42-3.8.63-5.97.63-17.52,0-22.31-14.16-22.31-35.55v-45.43h-23.12v11.1h9.07v110.22h14.06v-41.15c3.97,6.21,12.33,11.92,25.77,11.92.85,0,1.68-.03,2.51-.08v-11.66Z"/>
    <rect class="cls-1" x="633.8" y="124.42" width="14.06" height="32.87"/>
  </g>
  <g>
    <path class="cls-1" d="m118.05,251.45c-.92-.13-1.84-.13-2.89-.13-6.05,0-13.8,1.84-18.93,4.34h-8.28v-12.36l11.57-2.24v7.36c5.26-4.21,11.83-6.83,18.54-7.1,2.1-.13,4.21-.13,6.18.13,12.88,2.24,20.77,14.85,20.77,34.05,0,24.58-13.67,35.23-28.66,35.23-3.81,0-7.89-.66-11.31-1.84v-9.73c3.02.79,6.7,1.31,9.73,1.31.79,0,1.71,0,2.5-.13,9.99-1.18,15.51-9.33,15.51-24.19s-5.52-23.53-14.72-24.71Zm-30.1,9.2h11.96v81.37h-11.96v-81.37Z"/>
    <path class="cls-1" d="m214.8,301.53c-4.73,5.92-12.36,9.33-21.95,9.33-18.4,0-30.23-13.01-30.23-34.84,0-12.88,4.34-22.61,12.09-28.26v28.26c0,15.64,7.1,25.5,18.14,25.5h21.95Zm3.68-5.13h-12.62c2.76-4.34,5.13-11.17,5.13-19.85,0-15.64-6.84-25.9-18.54-25.9-4.21,0-9.07,1.18-12.62,3.02v-9.6c3.55-1.84,8.28-3.02,13.15-3.02,18.27,0,30.23,13.54,30.23,35.36,0,8.15-1.58,14.85-4.73,19.98Z"/>
    <path class="cls-1" d="m280.66,301.4c-3.29,5.39-9.86,9.07-19.59,9.33-.92,0-1.84,0-2.89-.13-7.1-.39-14.46-2.89-19.06-5.65l2.63-8.54c5.92,3.02,12.23,5,18.8,5h20.11Zm-17.35-60.34h3.16c6.05.53,11.44,2.24,15.38,4.08l-1.84,8.41c-5-1.84-10.25-3.15-15.25-3.15-7.62,0-12.62,3.68-12.62,9.07,0,.53.13,1.18.26,1.71,2.63,10.65,30.89,10.91,31.55,29.31v2.5c-.13,1.18-.39,2.37-.79,3.42h-12.09c.53-1.58.79-3.16.79-5-1.18-12.62-31.55-11.96-31.55-31.29,0-10.65,8.54-18.8,23-19.06Z"/>
    <path class="cls-1" d="m339.95,301.4c-3.29,5.39-9.86,9.07-19.59,9.33-.92,0-1.84,0-2.89-.13-7.1-.39-14.46-2.89-19.06-5.65l2.63-8.54c5.92,3.02,12.23,5,18.8,5h20.11Zm-17.35-60.34h3.16c6.05.53,11.44,2.24,15.38,4.08l-1.84,8.41c-5-1.84-10.25-3.15-15.25-3.15-7.62,0-12.62,3.68-12.62,9.07,0,.53.13,1.18.26,1.71,2.63,10.65,30.89,10.91,31.55,29.31v2.5c-.13,1.18-.39,2.37-.79,3.42h-12.09c.53-1.58.79-3.16.79-5-1.18-12.62-31.55-11.96-31.55-31.29,0-10.65,8.54-18.8,23-19.06Z"/>
    <path class="cls-1" d="m362.17,220.95c0-4.08,3.15-7.49,7.76-7.49s7.62,3.42,7.62,7.49-3.15,7.36-7.62,7.36-7.76-3.29-7.76-7.36Zm1.58,88.21v-65.86l11.96-2.24v68.09h-11.96Z"/>
    <path class="cls-1" d="m414.49,208.99v83.6h-11.96v-81.24l11.96-2.37Zm-11.96,88.6h8.28c4.73,1.71,11.57,2.89,17.09,2.89,2.23,0,4.34-.13,6.18-.66,8.54-2.1,13.28-9.86,13.28-23.66,0-15.91-6.44-24.84-16.83-24.84-3.29,0-7.49.92-10.91,2.23v-8.68c4.21-2.23,9.07-3.55,13.54-3.68,2.1-.13,4.08,0,5.92.39,12.62,2.37,20.51,14.85,20.51,33.92,0,23.4-12.88,34.05-27.08,35.1-.92.13-1.97.13-2.89.13-6.44-.13-11.96-2.23-16.96-5.13l-10.12,5.13v-13.15Z"/>
    <path class="cls-1" d="m480.21,220.95c0-4.08,3.15-7.49,7.76-7.49s7.62,3.42,7.62,7.49-3.15,7.36-7.62,7.36-7.76-3.29-7.76-7.36Zm1.58,88.21v-65.86l11.96-2.24v68.09h-11.96Z"/>
    <path class="cls-1" d="m520.57,309.16v-97.8l11.96-2.37v100.17h-11.96Z"/>
    <path class="cls-1" d="m557.77,220.95c0-4.08,3.15-7.49,7.76-7.49s7.62,3.42,7.62,7.49-3.15,7.36-7.62,7.36-7.76-3.29-7.76-7.36Zm1.58,88.21v-65.86l11.96-2.24v68.09h-11.96Z"/>
    <path class="cls-1" d="m630.6,252.11h-42.33v-8.41l10.91-.39,1.71-18.54,9.99-2.1v20.24l19.72-.66v9.86Zm-12.09,58.63c-11.44,0-19.59-5.65-19.59-23.14v-30.5h11.96v31.29c0,6.44,1.45,11.96,10.91,11.96,3.02,0,6.57-.39,9.86-1.05l.92,8.81c-4.08,1.45-8.81,2.63-14.07,2.63Z"/>
    <path class="cls-1" d="m647.95,220.95c0-4.08,3.15-7.49,7.76-7.49s7.62,3.42,7.62,7.49-3.15,7.36-7.62,7.36-7.76-3.29-7.76-7.36Zm1.58,88.21v-65.86l11.96-2.24v68.09h-11.96Z"/>
    <path class="cls-1" d="m715.52,310.87c-20.11,0-32.07-14.07-32.07-34.84,0-8.41,2.1-15.51,5.52-21.03h11.83c-2.5,3.29-4.6,8.28-5.26,14.99l30.76-.53c.79-9.2-1.84-19.46-12.88-19.46h-20.51c5.13-5.78,12.49-8.94,21.03-8.94,19.19,0,26.82,15.91,23.27,34.57-8.15,2.5-29.31,2.89-41.67,2.63.92,16.69,10.65,22.74,22.08,22.74,5.92,0,12.09-1.45,16.96-3.15l1.97,8.54c-6.57,3.02-14.59,4.47-21.03,4.47Z"/>
    <path class="cls-1" d="m794.4,301.4c-3.29,5.39-9.86,9.07-19.59,9.33-.92,0-1.84,0-2.89-.13-7.1-.39-14.46-2.89-19.06-5.65l2.63-8.54c5.92,3.02,12.23,5,18.8,5h20.11Zm-17.35-60.34h3.16c6.05.53,11.44,2.24,15.38,4.08l-1.84,8.41c-5-1.84-10.25-3.15-15.25-3.15-7.62,0-12.62,3.68-12.62,9.07,0,.53.13,1.18.26,1.71,2.63,10.65,30.89,10.91,31.55,29.31v2.5c-.13,1.18-.39,2.37-.79,3.42h-12.09c.53-1.58.79-3.16.79-5-1.18-12.62-31.55-11.96-31.55-31.29,0-10.65,8.54-18.8,23-19.06Z"/>
  </g>
</svg>