<?xml version="1.0" encoding="utf-8"?>
<!-- Generator: Adobe Illustrator 24.0.2, SVG Export Plug-In . SVG Version: 6.00 Build 0)  -->
<svg version="1.1" id="Layer_1" xmlns="http://www.w3.org/2000/svg" xmlns:xlink="http://www.w3.org/1999/xlink" x="0px" y="0px"
	 viewBox="0 0 762 74.96" style="enable-background:new 0 0 762 74.96;" xml:space="preserve">
<style type="text/css">
	.st0{fill:#FFFFFF;}
</style>
<g>
	<g>
		<path class="st0" d="M23.85,24.29H0v-4.74l6.15-0.22L7.11,8.89l5.63-1.19v11.41l11.11-0.37V24.29z M17.04,57.33
			C10.59,57.33,6,54.14,6,44.29V27.11h6.74v17.63c0,3.63,0.81,6.74,6.15,6.74c1.7,0,3.7-0.22,5.55-0.59l0.52,4.96
			C22.66,56.66,20,57.33,17.04,57.33z"/>
		<path class="st0" d="M34.51,56.44V1.33L41.25,0v56.44H34.51z M64.88,56.44h-6.67V32c0-5.18-1.33-8.15-6.67-8.15
			c-2.44,0-5.18,0.67-7.41,1.63v-4.96c2.89-1.56,6.3-2.44,9.63-2.44c6.81,0,11.11,3.48,11.11,11.48V56.44z"/>
		<path class="st0" d="M94.73,57.4c-11.33,0-18.07-7.92-18.07-19.63c0-4.74,1.19-8.74,3.11-11.85h6.67
			c-1.41,1.85-2.59,4.67-2.96,8.44l17.33-0.3c0.44-5.18-1.04-10.96-7.26-10.96H81.99c2.89-3.26,7.04-5.04,11.85-5.04
			c10.81,0,15.11,8.96,13.11,19.48c-4.59,1.41-16.52,1.63-23.48,1.48c0.52,9.41,6,12.81,12.44,12.81c3.33,0,6.81-0.81,9.55-1.78
			l1.11,4.81C102.88,56.59,98.36,57.4,94.73,57.4z"/>
		<path class="st0" d="M133.76,50.81c0.22,1.56,0.67,2.81,1.26,4c-2.96,1.55-6.3,2.52-9.33,2.52c-6.37,0-10.59-3.78-10.59-9.85
			c0-6.52,4.96-9.92,14.89-10.67c1.18-0.07,2.37-0.15,3.55-0.15h0.3l4.22-0.07h5.26v7.7c0,1.18,0.07,2.37,0.15,3.55
			c0.07,2.74,1.26,4.22,3.78,4.22c0.74,0,1.48-0.07,2.37-0.3v4.37c-1.04,0.59-2.22,1.04-3.85,1.11c-1.04,0.07-1.93,0-2.81-0.15
			c-3.48-0.74-5.56-3.18-5.93-7.41c-0.15-2.67-0.22-5.48-0.22-8.44h-3.85c-1.19,0-2.15,0-3.11,0.07c-6.07,0.44-8.22,2.44-8.22,5.7
			c0,3.48,2.37,5.11,6.07,5.11C129.54,52.14,131.76,51.62,133.76,50.81z M143.32,32.29v1.48h-6.59c-0.15-6.3-0.96-10.22-6.96-10.22
			c-2.74,0-6.52,0.74-11.63,2.52l-1.11-5.18c4.89-1.63,9.11-2.81,13.92-2.81C140.73,18.07,143.32,23.26,143.32,32.29z"/>
		<path class="st0" d="M177.46,24.29h-23.85v-4.74l6.15-0.22l0.96-10.44l5.63-1.19v11.41l11.11-0.37V24.29z M170.65,57.33
			c-6.44,0-11.04-3.18-11.04-13.04V27.11h6.74v17.63c0,3.63,0.81,6.74,6.15,6.74c1.7,0,3.7-0.22,5.55-0.59l0.52,4.96
			C176.28,56.66,173.61,57.33,170.65,57.33z"/>
		<path class="st0" d="M194.87,56.44h-6.74V19.33l6.74-1.26V56.44z M197.68,26v-5.63c2.52-1.55,5.85-2.37,9.33-2.37l-0.22,6.44
			C203.46,24.52,200.28,25.03,197.68,26z"/>
		<path class="st0" d="M231.38,57.4c-11.33,0-18.07-7.92-18.07-19.63c0-4.74,1.19-8.74,3.11-11.85h6.67
			c-1.41,1.85-2.59,4.67-2.96,8.44l17.33-0.3c0.44-5.18-1.04-10.96-7.26-10.96h-11.55c2.89-3.26,7.04-5.04,11.85-5.04
			c10.81,0,15.11,8.96,13.11,19.48c-4.59,1.41-16.52,1.63-23.48,1.48c0.52,9.41,6,12.81,12.44,12.81c3.33,0,6.81-0.81,9.55-1.78
			l1.11,4.81C239.53,56.59,235.01,57.4,231.38,57.4z"/>
		<path class="st0" d="M300.86,52.14c-2.67,3.33-6.96,5.26-12.37,5.26c-10.37,0-17.04-7.33-17.04-19.63
			c0-7.26,2.44-12.74,6.81-15.92v15.92c0,8.81,4,14.37,10.22,14.37H300.86z M302.93,49.25h-7.11c1.56-2.44,2.89-6.29,2.89-11.18
			c0-8.81-3.85-14.59-10.44-14.59c-2.37,0-5.11,0.67-7.11,1.7v-5.41c2-1.04,4.67-1.7,7.41-1.7c10.29,0,17.04,7.63,17.04,19.92
			C305.6,42.59,304.71,46.37,302.93,49.25z"/>
		<path class="st0" d="M335.52,24.22h-22.66v-4.67l6.07-0.22v-5.48c0.22-9.48,4.67-13.33,10.15-13.78C329.67,0,330.19,0,330.71,0
			c2.44,0.07,4.67,0.74,6.74,1.63l-0.96,4.96c-1.85-0.44-4-0.74-5.48-0.74c-3.48,0-5.26,2-5.33,7.33v5.85l9.85-0.3V24.22z
			 M318.93,27.03h6.74v29.4h-6.74V27.03z"/>
		<path class="st0" d="M379.07,23.92c-0.52-0.07-1.04-0.07-1.63-0.07c-3.41,0-7.78,1.04-10.67,2.44h-4.67v-6.96l6.52-1.26v4.15
			c2.96-2.37,6.67-3.85,10.44-4c1.19-0.07,2.37-0.07,3.48,0.07c7.26,1.26,11.7,8.37,11.7,19.18c0,13.85-7.7,19.85-16.15,19.85
			c-2.15,0-4.44-0.37-6.37-1.04v-5.48c1.7,0.44,3.78,0.74,5.48,0.74c0.44,0,0.96,0,1.41-0.07c5.63-0.67,8.74-5.26,8.74-13.63
			C387.37,29.48,384.26,24.59,379.07,23.92z M362.11,29.11h6.74v45.85h-6.74V29.11z"/>
		<path class="st0" d="M433.59,52.14c-2.67,3.33-6.96,5.26-12.37,5.26c-10.37,0-17.04-7.33-17.04-19.63
			c0-7.26,2.44-12.74,6.81-15.92v15.92c0,8.81,4,14.37,10.22,14.37H433.59z M435.66,49.25h-7.11c1.56-2.44,2.89-6.29,2.89-11.18
			c0-8.81-3.85-14.59-10.44-14.59c-2.37,0-5.11,0.67-7.11,1.7v-5.41c2-1.04,4.67-1.7,7.41-1.7c10.3,0,17.04,7.63,17.04,19.92
			C438.33,42.59,437.44,46.37,435.66,49.25z"/>
		<path class="st0" d="M470.7,52.07c-1.85,3.04-5.55,5.11-11.04,5.26c-0.52,0-1.04,0-1.63-0.07c-4-0.22-8.15-1.63-10.74-3.19
			l1.48-4.81c3.33,1.7,6.89,2.81,10.59,2.81H470.7z M460.92,18.07h1.78c3.41,0.3,6.44,1.26,8.67,2.3l-1.04,4.74
			c-2.81-1.04-5.78-1.78-8.59-1.78c-4.3,0-7.11,2.07-7.11,5.11c0,0.3,0.07,0.67,0.15,0.96c1.48,6,17.41,6.15,17.78,16.52v1.41
			c-0.07,0.67-0.22,1.33-0.44,1.93h-6.81c0.3-0.89,0.44-1.78,0.44-2.81c-0.67-7.11-17.78-6.74-17.78-17.63
			C447.96,22.81,452.77,18.22,460.92,18.07z"/>
		<path class="st0" d="M504.1,52.07c-1.85,3.04-5.55,5.11-11.04,5.26c-0.52,0-1.04,0-1.63-0.07c-4-0.22-8.15-1.63-10.74-3.19
			l1.48-4.81c3.33,1.7,6.89,2.81,10.59,2.81H504.1z M494.32,18.07h1.78c3.41,0.3,6.44,1.26,8.67,2.3l-1.04,4.74
			c-2.81-1.04-5.78-1.78-8.59-1.78c-4.3,0-7.11,2.07-7.11,5.11c0,0.3,0.07,0.67,0.15,0.96c1.48,6,17.41,6.15,17.78,16.52v1.41
			c-0.07,0.67-0.22,1.33-0.44,1.93h-6.81c0.3-0.89,0.44-1.78,0.44-2.81c-0.67-7.11-17.78-6.74-17.78-17.63
			C481.36,22.81,486.17,18.22,494.32,18.07z"/>
		<path class="st0" d="M516.62,6.74c0-2.3,1.78-4.22,4.37-4.22c2.52,0,4.3,1.93,4.3,4.22s-1.78,4.15-4.3,4.15
			C518.39,10.89,516.62,9.04,516.62,6.74z M517.5,56.44V19.33l6.74-1.26v38.37H517.5z"/>
		<path class="st0" d="M546.09,0v47.11h-6.74V1.33L546.09,0z M539.35,49.92h4.67c2.67,0.96,6.52,1.63,9.63,1.63
			c1.26,0,2.44-0.07,3.48-0.37c4.81-1.18,7.48-5.55,7.48-13.33c0-8.96-3.63-14-9.48-14c-1.85,0-4.22,0.52-6.15,1.26v-4.89
			c2.37-1.26,5.11-2,7.63-2.07c1.18-0.07,2.3,0,3.33,0.22c7.11,1.33,11.55,8.37,11.55,19.11c0,13.18-7.26,19.18-15.26,19.78
			c-0.52,0.07-1.11,0.07-1.63,0.07c-3.63-0.07-6.74-1.26-9.55-2.89l-5.7,2.89V49.92z"/>
		<path class="st0" d="M583.13,6.74c0-2.3,1.78-4.22,4.37-4.22c2.52,0,4.3,1.93,4.3,4.22s-1.78,4.15-4.3,4.15
			C584.91,10.89,583.13,9.04,583.13,6.74z M584.02,56.44V19.33l6.74-1.26v38.37H584.02z"/>
		<path class="st0" d="M605.87,56.44V1.33L612.61,0v56.44H605.87z"/>
		<path class="st0" d="M626.83,6.74c0-2.3,1.78-4.22,4.37-4.22c2.52,0,4.3,1.93,4.3,4.22s-1.78,4.15-4.3,4.15
			C628.61,10.89,626.83,9.04,626.83,6.74z M627.72,56.44V19.33l6.74-1.26v38.37H627.72z"/>
		<path class="st0" d="M667.86,24.29h-23.85v-4.74l6.15-0.22l0.96-10.44l5.63-1.19v11.41l11.11-0.37V24.29z M661.05,57.33
			c-6.44,0-11.04-3.18-11.04-13.04V27.11h6.74v17.63c0,3.63,0.81,6.74,6.15,6.74c1.7,0,3.7-0.22,5.55-0.59l0.52,4.96
			C666.68,56.66,664.01,57.33,661.05,57.33z"/>
		<path class="st0" d="M677.64,6.74c0-2.3,1.78-4.22,4.37-4.22c2.52,0,4.3,1.93,4.3,4.22s-1.78,4.15-4.3,4.15
			C679.42,10.89,677.64,9.04,677.64,6.74z M678.53,56.44V19.33l6.74-1.26v38.37H678.53z"/>
		<path class="st0" d="M715.71,57.4c-11.33,0-18.07-7.92-18.07-19.63c0-4.74,1.18-8.74,3.11-11.85h6.67
			c-1.41,1.85-2.59,4.67-2.96,8.44l17.33-0.3c0.44-5.18-1.04-10.96-7.26-10.96h-11.55c2.89-3.26,7.04-5.04,11.85-5.04
			c10.81,0,15.11,8.96,13.11,19.48c-4.59,1.41-16.52,1.63-23.48,1.48c0.52,9.41,6,12.81,12.44,12.81c3.33,0,6.81-0.81,9.55-1.78
			l1.11,4.81C723.86,56.59,719.34,57.4,715.71,57.4z"/>
		<path class="st0" d="M760.15,52.07c-1.85,3.04-5.55,5.11-11.04,5.26c-0.52,0-1.04,0-1.63-0.07c-4-0.22-8.15-1.63-10.74-3.19
			l1.48-4.81c3.33,1.7,6.89,2.81,10.59,2.81H760.15z M750.37,18.07h1.78c3.41,0.3,6.44,1.26,8.67,2.3l-1.04,4.74
			c-2.81-1.04-5.78-1.78-8.59-1.78c-4.3,0-7.11,2.07-7.11,5.11c0,0.3,0.07,0.67,0.15,0.96c1.48,6,17.41,6.15,17.78,16.52v1.41
			c-0.07,0.67-0.22,1.33-0.44,1.93h-6.81c0.3-0.89,0.44-1.78,0.44-2.81c-0.67-7.11-17.78-6.74-17.78-17.63
			C737.41,22.81,742.23,18.22,750.37,18.07z"/>
	</g>
</g>
</svg>
